<mxfile host="app.diagrams.net" agent="Mozilla/5.0 (Windows NT 10.0; Win64; x64) AppleWebKit/537.36 (KHTML, like Gecko) Chrome/134.0.0.0 YaBrowser/25.4.0.0 Safari/537.36" version="27.1.3">
  <diagram name="Страница — 1" id="Nqn5sH8f4SsPKEA7VOJv">
    <mxGraphModel dx="1426" dy="796" grid="1" gridSize="10" guides="1" tooltips="1" connect="1" arrows="1" fold="1" page="1" pageScale="1" pageWidth="827" pageHeight="1169" math="0" shadow="0">
      <root>
        <mxCell id="0" />
        <mxCell id="1" parent="0" />
        <mxCell id="a6HJm-3Ev6RPCr2-VMvF-10" value="" style="rounded=1;whiteSpace=wrap;html=1;" vertex="1" parent="1">
          <mxGeometry x="70" y="100" width="200" height="300" as="geometry" />
        </mxCell>
        <mxCell id="a6HJm-3Ev6RPCr2-VMvF-11" style="edgeStyle=none;curved=1;rounded=0;orthogonalLoop=1;jettySize=auto;html=1;exitX=1;exitY=0.5;exitDx=0;exitDy=0;fontSize=12;startSize=8;endSize=8;entryX=0;entryY=0.5;entryDx=0;entryDy=0;" edge="1" parent="1" source="a6HJm-3Ev6RPCr2-VMvF-12" target="a6HJm-3Ev6RPCr2-VMvF-15">
          <mxGeometry relative="1" as="geometry">
            <mxPoint x="350" y="180" as="targetPoint" />
          </mxGeometry>
        </mxCell>
        <mxCell id="a6HJm-3Ev6RPCr2-VMvF-12" value="ID_фонда" style="ellipse;whiteSpace=wrap;html=1;" vertex="1" parent="1">
          <mxGeometry x="110" y="140" width="120" height="80" as="geometry" />
        </mxCell>
        <mxCell id="a6HJm-3Ev6RPCr2-VMvF-13" style="edgeStyle=none;curved=1;rounded=0;orthogonalLoop=1;jettySize=auto;html=1;exitX=1;exitY=0.5;exitDx=0;exitDy=0;entryX=0;entryY=0;entryDx=0;entryDy=0;fontSize=12;startSize=8;endSize=8;" edge="1" parent="1" source="a6HJm-3Ev6RPCr2-VMvF-10" target="a6HJm-3Ev6RPCr2-VMvF-16">
          <mxGeometry relative="1" as="geometry" />
        </mxCell>
        <mxCell id="a6HJm-3Ev6RPCr2-VMvF-14" value="ISIN_бумаги" style="ellipse;whiteSpace=wrap;html=1;" vertex="1" parent="1">
          <mxGeometry x="110" y="280" width="120" height="80" as="geometry" />
        </mxCell>
        <mxCell id="a6HJm-3Ev6RPCr2-VMvF-15" value="Название_фонда" style="ellipse;whiteSpace=wrap;html=1;" vertex="1" parent="1">
          <mxGeometry x="354" y="140" width="120" height="80" as="geometry" />
        </mxCell>
        <mxCell id="a6HJm-3Ev6RPCr2-VMvF-16" value="Название_бумаги" style="ellipse;whiteSpace=wrap;html=1;" vertex="1" parent="1">
          <mxGeometry x="354" y="280" width="120" height="80" as="geometry" />
        </mxCell>
      </root>
    </mxGraphModel>
  </diagram>
</mxfile>
